<svg width="32" height="32" viewBox="0 0 32 32" xmlns="http://www.w3.org/2000/svg">
  <!-- Temple Gopuram Icon -->
  <path d="M16 2 L20 6 L20 10 L24 10 L24 14 L20 14 L20 18 L24 18 L24 22 L20 22 L20 26 L16 30 L12 26 L12 22 L8 22 L8 18 L12 18 L12 14 L8 14 L8 10 L12 10 L12 6 Z" 
        fill="#FF9933" 
        stroke="#FF6600" 
        stroke-width="1"/>
  <path d="M16 6 L18 8 L18 12 L20 12 L20 16 L18 16 L18 20 L20 20 L20 24 L16 28 L12 24 L12 20 L14 20 L14 16 L12 16 L12 12 L14 12 L14 8 Z" 
        fill="#FFD700"/>
  <circle cx="16" cy="10" r="1.5" fill="#FF6600"/>
  <circle cx="16" cy="14" r="1.5" fill="#FF6600"/>
  <circle cx="16" cy="18" r="1.5" fill="#FF6600"/>
</svg>

